{"title":"Despicable.Me.DVDRiP.H264[350MB]","uid":5986539,"size":357332289,"categoryP":"video","categoryS":"movies","magnet":"?xt=urn:btih:cf22ca2c03b7988b4ea558e708bb36896a50fafb&amp;dn=Despicable.Me.DVDRiP.H264%5B350MB%5D&amp;tr=udp%3A%2F%2Ftracker.openbittorrent.com%3A80&amp;tr=udp%3A%2F%2Fopen.demonii.com%3A1337&amp;tr=udp%3A%2F%2Ftracker.coppersurfer.tk%3A6969&amp;tr=udp%3A%2F%2Fexodus.desync.com%3A6969","seeders":0,"leechers":1,"uploader":"dasklney","files":3,"time":1290760253,"description":"Source: Despicable.Me.DVDRip.XviD-iMBT\n\n\nGeneral\nComplete name                    : Despicable.Me.DVDRiP.H264-Giang.avi\nFormat                           : AVI\nFormat/Info                      : Audio Video Interleave\nFile size                        : 341 MiB\nDuration                         : 1h 30mn\nOverall bit rate                 : 524 Kbps\nWriting application              : Cobra 11.6.0.51105\n\nVideo\nID                               : 0\nFormat                           : AVC\nFormat/Info                      : Advanced Video Codec\nFormat profile                   : &lt;a class=&quot;__cf_email__&quot; href=&quot;/cdn-cgi/l/email-protection&quot; data-cfemail=&quot;1456756771787d7a715458273a24&quot;&gt;[email&amp;#160;protected]&lt;/a&gt;&lt;script cf-hash='f9e31' type=&quot;text/javascript&quot;&gt;\n/* &lt;![CDATA[ */!function(){try{var t=&quot;currentScript&quot;in document?document.currentScript:function(){for(var t=document.getElementsByTagName(&quot;script&quot;),e=t.length;e--;)if(t[e].getAttribute(&quot;cf-hash&quot;))return t[e]}();if(t&amp;&amp;t.previousSibling){var e,r,n,i,c=t.previousSibling,a=c.getAttribute(&quot;data-cfemail&quot;);if(a){for(e=&quot;&quot;,r=parseInt(a.substr(0,2),16),n=2;a.length-n;n+=2)i=parseInt(a.substr(n,2),16)^r,e+=String.fromCharCode(i);e=document.createTextNode(e),c.parentNode.replaceChild(e,c)}}}catch(u){}}();/* ]]&gt; */&lt;/script&gt;\nFormat settings, CABAC           : No\nFormat settings, ReFrames        : 2 frames\nFormat settings, GOP             : M=1, N=16\nCodec ID                         : H264\nDuration                         : 1h 30mn\nBit rate                         : 443 Kbps\nWidth                            : 624 pixels\nHeight                           : 336 pixels\nDisplay aspect ratio             : 1.857\nFrame rate                       : 25.000 fps\nStandard                         : PAL\nColor space                      : YUV\nChroma subsampling               : 4:2:0\nBit depth                        : 8 bits\nScan type                        : Progressive\nBits/(Pixel*Frame)               : 0.084\nStream size                      : 288 MiB (85%)\nColor primaries                  : BT.470-6 System B, BT.470-6 System G, BT.601-6 625, BT.1358 625, BT.1700 625 PAL, BT.1700 625 SECAM\nTransfer characteristics         : BT.470-6 System B, BT.470-6 System G\nMatrix coefficients              : BT.470-6 System B, BT.470-6 System G, BT.601-6 625, BT.1358 625, BT.1700 625 PAL, BT.1700 625 SECAM, IEC 61966-2-4 601\n\nAudio\nID                               : 1\nFormat                           : MPEG Audio\nFormat version                   : Version 1\nFormat profile                   : Layer 3\nCodec ID                         : 55\nCodec ID/Hint                    : MP3\nDuration                         : 1h 30mn\nBit rate mode                    : Constant\nBit rate                         : 64.0 Kbps\nChannel(s)                       : 2 channels\nSampling rate                    : 48.0 KHz\nStream size                      : 41.6 MiB (12%)\nAlignment                        : Aligned on interleaves\nInterleave, duration             : 24 ms (0.60 video frame)\nInterleave, preload duration     : 48 ms\n","torrent":{"xt":"urn:btih:cf22ca2c03b7988b4ea558e708bb36896a50fafb","amp;dn":"Despicable.Me.DVDRiP.H264%5B350MB%5D","amp;tr":["udp%3A%2F%2Ftracker.openbittorrent.com%3A80","udp%3A%2F%2Fopen.demonii.com%3A1337","udp%3A%2F%2Ftracker.coppersurfer.tk%3A6969","udp%3A%2F%2Fexodus.desync.com%3A6969"],"infoHash":"cf22ca2c03b7988b4ea558e708bb36896a50fafb","infoHashBuffer":{"type":"Buffer","data":[207,34,202,44,3,183,152,139,78,165,88,231,8,187,54,137,106,80,250,251]},"announce":[],"urlList":[]}}